HIERARCHY
ROOT Hips
{
	OFFSET -3.958830 18.904000 13.208200
	CHANNELS 6 Xposition Yposition Zposition Zrotation Yrotation Xrotation 
	JOINT LHipJoint
	{
		OFFSET 0.000000 0.000000 0.000000
		CHANNELS 3 Zrotation Yrotation Xrotation
		JOINT LeftUpLeg
		{
			OFFSET 1.800000 -1.400000 0.085000
			CHANNELS 3 Zrotation Yrotation Xrotation
			JOINT LeftLeg
			{
				OFFSET 2.215000 -6.000000 0.000000
				CHANNELS 3 Zrotation Yrotation Xrotation
				JOINT LeftFoot
				{
					OFFSET 2.500000 -6.900000 0.000000
					CHANNELS 3 Zrotation Yrotation Xrotation
					JOINT LeftToeBase
					{
						OFFSET 0.200000 -0.500000 1.950000
						CHANNELS 3 Zrotation Yrotation Xrotation
						End Site
						{
							OFFSET 0.000000 0.000000 0.000000
						}
					}
				}
			}
		}
	}
	JOINT RHipJoint
	{
		OFFSET 0.000000 0.000000 0.000000
		CHANNELS 3 Zrotation Yrotation Xrotation
		JOINT RightUpLeg
		{
			OFFSET -1.800000 -1.400000 0.085000
			CHANNELS 3 Zrotation Yrotation Xrotation
			JOINT RightLeg
			{
				OFFSET -2.215000 -6.000000 0.000000
				CHANNELS 3 Zrotation Yrotation Xrotation
				JOINT RightFoot
				{
					OFFSET -2.500000 -6.900000 0.000000
					CHANNELS 3 Zrotation Yrotation Xrotation
					JOINT RightToeBase
					{
						OFFSET -0.200000 -0.500000 1.950000
						CHANNELS 3 Zrotation Yrotation Xrotation
						End Site
						{
							OFFSET 0.000000 0.000000 0.000000
						}
					}
				}
			}
		}
	}
	JOINT LowerBack
	{
		OFFSET 0.000000 0.000000 0.000000
		CHANNELS 3 Zrotation Yrotation Xrotation
		JOINT Spine
		{
			OFFSET -0.087000 1.940000 -0.288900
			CHANNELS 3 Zrotation Yrotation Xrotation
			JOINT Spine1
			{
				OFFSET 0.000000 1.950000 0.060000
				CHANNELS 3 Zrotation Yrotation Xrotation
				JOINT Neck
				{
					OFFSET 0.000000 0.000000 0.000000
					CHANNELS 3 Zrotation Yrotation Xrotation
					JOINT Neck1
					{
						OFFSET 0.000000 1.600000 0.340000
						CHANNELS 3 Zrotation Yrotation Xrotation
						JOINT Head
						{
							OFFSET 0.000000 1.667000 -0.240000
							CHANNELS 3 Zrotation Yrotation Xrotation
							End Site
							{
								OFFSET 0.000000 0.000000 0.000000
							}
						}
					}
				}
				JOINT LeftShoulder
				{
					OFFSET 0.000000 0.000000 0.000000
					CHANNELS 3 Zrotation Yrotation Xrotation
					JOINT LeftArm
					{
						OFFSET 2.700000 1.550000 -0.730000
						CHANNELS 3 Zrotation Yrotation Xrotation
						JOINT LeftForeArm
						{
							OFFSET 5.450000 0.000000 0.000000
							CHANNELS 3 Zrotation Yrotation Xrotation
							JOINT LeftHand
							{
								OFFSET 3.450000 0.000000 0.000000
								CHANNELS 3 Zrotation Yrotation Xrotation
								JOINT LeftHandIndex1
								{
									OFFSET 0.750000 0.000000 0.000000
									CHANNELS 3 Zrotation Yrotation Xrotation
									End Site
									{
										OFFSET 0.000000 0.000000 0.000000
									}
								}
							}
						}
					}
				}
				JOINT RightShoulder
				{
					OFFSET 0.000000 0.000000 0.000000
					CHANNELS 3 Zrotation Yrotation Xrotation
					JOINT RightArm
					{
						OFFSET -2.700000 1.550000 -0.730000
						CHANNELS 3 Zrotation Yrotation Xrotation
						JOINT RightForeArm
						{
							OFFSET -5.450000 0.000000 0.000000
							CHANNELS 3 Zrotation Yrotation Xrotation
							JOINT RightHand
							{
								OFFSET -3.450000 0.000000 0.000000
								CHANNELS 3 Zrotation Yrotation Xrotation
								JOINT RightHandIndex1
								{
									OFFSET -0.750000 0.000000 0.000000
									CHANNELS 3 Zrotation Yrotation Xrotation
									End Site
									{
										OFFSET 0.000000 0.000000 0.000000
									}
								}
							}
						}
					}
				}
			}
		}
	}
}
MOTION
Frames: 14
Frame Time: 0.016667
-2.159500 18.021430 0.389710 -9.965806 -6.796363 -15.843687 -15.577077 13.991984 3.634904 30.189531 0.878327 -14.372611 -3.974545 7.050598 11.916384 -0.076925 5.517364 2.557124 -0.057480 -0.033170 -0.306900 17.823399 -10.284872 2.208904 -1.622916 -2.047353 5.477876 1.085417 -9.424041 40.257212 -1.119321 -6.958519 2.046284 -0.077220 0.450910 -0.042220 -2.245420 -4.396316 -7.980822 -19.877098 4.304602 24.580364 4.244092 2.785912 -0.179611 3.860143 -13.242733 -20.042970 -36.818541 13.090277 29.316678 12.627010 -0.296950 -15.199150 -6.133181 -18.354870 10.301273 -14.259316 0.663136 -8.254326 46.654003 -61.690190 -28.006838 -3.138073 2.427006 0.621270 -0.143720 0.108730 0.229350 3.281888 32.276965 11.627449 -14.043510 -3.010907 -17.127196 -139.113187 -13.888222 18.916359 2.729010 -2.449189 -0.334260 0.497410 0.142200 0.183890 
-2.165210 18.044780 0.370210 -9.861358 -4.790078 -17.642801 -15.513823 14.073024 3.473960 29.236689 1.028239 -13.755358 -3.463182 6.966533 12.547843 -0.183514 5.499047 2.555098 -0.139080 -0.149770 -0.325110 17.844291 -10.407701 2.298788 -2.583406 -2.466917 7.634343 2.248548 -9.975047 38.305895 -1.109986 -6.928659 2.041040 -0.117040 0.458390 -0.042770 -2.396664 -4.235786 -7.936113 -20.075309 4.466103 26.737068 1.857881 3.601819 2.307206 4.002088 -13.146290 -20.954728 -37.431988 13.479967 29.536542 11.890430 0.143250 -17.375530 -5.955100 -21.088096 9.791818 -10.235276 -2.979013 -8.751375 50.538858 -57.997649 -28.098705 -3.300692 2.346258 0.687280 -0.146050 0.097360 0.151230 2.768593 35.006148 12.760327 -14.074989 -4.231860 -18.511058 -133.819185 -12.092339 10.540160 2.783881 -2.273947 -0.392330 0.541630 0.249870 0.132780 
-2.168230 18.070700 0.314720 -10.523386 -3.429512 -21.047461 -15.330005 13.953531 3.276653 29.159288 1.560130 -10.821664 -3.126830 6.852062 12.476214 -0.224871 5.627034 2.554206 -0.154690 -0.189160 -0.311580 17.972787 -10.660634 2.544979 -3.149178 -2.852761 11.716068 3.432468 -10.274390 34.982581 -1.167429 -6.936751 2.047078 -0.123540 0.471750 -0.010050 -2.866605 -3.399027 -7.903892 -18.263374 4.384319 31.926552 -3.829767 5.729405 6.105093 5.125728 -13.362212 -22.723713 -38.401164 12.378833 27.586533 9.093540 0.325910 -21.090790 -2.425209 -25.150513 9.066387 -4.520249 -8.633414 -11.035682 56.508741 -51.004930 -28.605785 -3.705612 2.428122 0.752500 -0.140090 0.119120 0.124710 -2.801225 39.619250 14.532791 -15.156322 -8.484509 -22.333885 -121.078852 -19.927978 14.703303 3.350751 -2.193283 -0.422010 0.604060 0.309650 0.106580 
-2.146020 18.065900 0.320990 -11.102726 -0.646305 -21.428207 -15.214479 13.760390 3.126813 28.030066 1.670268 -11.431288 -2.700722 6.476770 12.116471 -0.426015 5.479400 2.586342 -0.143250 -0.190930 -0.313320 18.073416 -10.898304 2.648579 -3.756119 -3.176544 12.988897 4.407551 -10.233531 31.924290 -1.109010 -6.876678 2.025167 -0.043650 0.515890 0.004750 -3.205966 -2.750800 -7.757963 -15.994019 2.320865 30.736118 -10.313212 7.492195 13.215673 4.155609 -14.094766 -21.563917 -36.792604 9.493844 24.116774 8.819380 -1.412330 -22.515420 4.642471 -27.947350 6.972584 -2.154113 -15.849771 -14.173869 60.928952 -44.995534 -29.245011 -4.249103 2.636228 0.735400 -0.084230 0.048350 0.085290 -9.800868 41.280143 16.136723 -16.227089 -8.789752 -23.911626 -100.606842 -29.465336 14.380745 4.088298 -2.140496 -0.473810 0.636790 0.382220 0.073880 
-2.108260 18.080640 0.350000 -12.351131 2.575518 -19.011982 -14.904673 13.375664 3.031910 26.629535 1.498696 -15.249690 -1.751856 5.938663 12.527200 -0.483216 4.933118 2.725318 -0.152230 -0.151940 -0.371370 18.364268 -11.381957 2.759642 -3.206252 -3.012366 10.769936 4.611494 -9.669710 29.995157 -1.041752 -6.562457 2.126446 -0.044100 0.532990 0.006980 -4.097377 -1.399096 -7.821070 -9.677291 -0.343822 29.034074 -18.696992 7.330392 12.803535 4.294696 -13.607042 -21.223400 -37.946466 9.953521 26.757899 11.938630 -2.742850 -19.578450 7.331836 -29.357808 3.785850 -2.114696 -25.360868 -12.971116 65.618229 -43.354982 -30.719454 -4.260993 2.479957 0.684080 -0.074300 0.054450 0.093140 -13.981296 39.734159 18.681277 -18.858694 -6.896308 -18.566704 -71.431714 -37.602361 11.479843 5.293561 -1.710615 -0.424410 0.620160 0.386820 0.121400 
-2.072110 18.076160 0.381650 -11.840799 4.344552 -16.190402 -14.686289 13.121523 3.007400 24.886272 1.525206 -18.881472 -2.466060 6.040718 13.698728 -0.655235 4.800278 2.736800 -0.148140 -0.110500 -0.392750 18.623991 -11.574857 2.648708 -4.002303 -2.046582 8.553023 4.000267 -8.768636 28.869787 -0.918540 -6.263534 2.209358 0.045840 0.606370 -0.052150 -4.814141 -0.724271 -7.821154 -5.503094 -1.842009 25.217963 -26.166721 7.341753 13.656028 4.106004 -12.919520 -21.085243 -36.637966 11.397403 27.800294 14.946260 -2.091910 -17.463230 11.636191 -28.927813 2.446410 -4.828782 -29.987353 -12.455507 71.942721 -44.439832 -35.935017 -4.349718 2.315157 0.663370 -0.028380 -0.005050 0.080960 -19.077002 37.204845 16.652483 -20.297700 -3.607937 -13.272119 -39.002054 -30.367278 4.522979 6.369464 -0.621523 -0.497180 0.707320 0.425210 0.110870 
-2.040540 18.054980 0.379310 -12.567591 5.825429 -14.774944 -14.379219 12.523631 2.837393 24.352375 1.979621 -22.328120 -2.093720 6.225322 15.802848 -0.752048 4.789156 2.680938 0.006270 0.024830 -0.190090 19.070135 -11.776550 2.528443 -3.692865 -1.411164 7.557352 3.347441 -8.210165 28.420391 -0.991750 -6.136798 2.176162 0.128320 0.465120 -0.009030 -5.896024 0.787566 -7.920232 0.772366 -3.682371 24.059745 -33.409030 5.805548 15.327620 5.710799 -12.664721 -20.402873 -34.739411 11.412383 29.281742 11.892130 -0.312630 -20.815830 13.591897 -25.919568 0.430361 -4.315036 -34.087477 -11.409440 74.471224 -44.423812 -38.120022 -4.139526 2.227309 0.733620 -0.086990 0.098170 0.060720 -24.929638 34.694170 9.938482 -19.770408 -0.771505 -9.987576 -22.198586 -9.042189 0.009010 4.306539 -0.461987 -0.460700 0.674070 0.347000 0.040340 
-2.035840 18.026340 0.426420 -11.346257 4.624417 -13.804219 -14.373766 12.388528 2.809492 24.256091 2.653888 -21.793535 -3.688005 6.697781 15.205005 -0.704323 4.917941 2.627521 0.095440 0.150360 -0.125090 19.120543 -11.782075 2.376505 -5.211056 -0.748336 7.353484 2.872396 -7.705716 27.797332 -0.965187 -6.092355 2.178319 0.201200 0.432430 0.022420 -5.961082 0.818794 -7.899256 1.739481 -2.510714 21.426034 -35.219208 7.506112 16.737312 6.397751 -12.391421 -19.789729 -33.445463 12.751168 30.046049 8.564780 1.362220 -19.190430 14.645860 -24.701169 1.259594 -3.876266 -32.890698 -11.899275 75.193914 -42.868157 -38.108591 -4.068888 2.321272 0.660030 -0.051440 0.115900 0.092630 -27.799379 34.701934 4.980587 -19.841066 2.082531 -10.132524 -20.937571 7.281695 -1.533622 3.304961 -1.455847 -0.404890 0.633090 0.275930 0.049490 
-2.038760 18.029490 0.405740 -10.173798 3.758660 -15.587843 -14.545011 12.474478 2.639086 24.269180 3.124446 -19.361119 -4.044988 6.892449 15.265417 -0.769227 5.137941 2.579724 0.142810 0.236470 -0.147520 18.939703 -11.866050 2.366289 -6.397481 -0.709881 9.160039 2.081378 -7.492470 27.872770 -0.909783 -6.409357 2.098714 0.335590 0.554100 0.063630 -5.446278 0.673299 -7.684089 -0.900499 -0.976055 21.936083 -32.005650 10.212228 19.816193 5.131193 -12.867966 -16.169385 -29.167059 11.302488 27.172018 4.927580 1.267430 -17.207500 14.441528 -25.562711 2.452613 -1.970310 -28.784466 -14.303041 70.195570 -40.214273 -34.186473 -4.204973 2.499899 0.498580 0.121430 -0.007450 0.122980 -25.528517 35.660867 3.384939 -21.461437 4.406046 -15.073748 -30.302732 18.890347 -5.430859 3.291857 -2.153378 -0.416970 0.656160 0.291260 0.070470 
-2.024920 18.019200 0.397390 -9.638359 3.390713 -16.383811 -14.807658 12.625609 2.669339 24.444816 3.467644 -18.600926 -4.590284 7.224941 15.473477 -0.736788 5.339135 2.523513 0.159780 0.288580 -0.117680 18.677868 -11.699817 2.363659 -7.045914 -0.813205 10.235991 2.574053 -7.595193 27.238188 -0.862305 -6.555631 2.044564 0.403860 0.598430 0.095140 -4.698372 0.034236 -7.439344 -3.576046 0.842724 21.063794 -26.783111 12.376965 21.995799 3.625318 -12.402405 -14.017260 -26.628458 12.409308 27.873925 1.189330 3.027550 -14.601130 12.854882 -26.723955 4.344047 -2.783705 -25.168734 -14.387715 63.831570 -37.340392 -29.264399 -4.221030 2.619609 0.363850 0.236040 -0.059050 0.132790 -21.173614 36.865708 3.423128 -20.148860 10.122867 -18.165189 -44.205527 31.696018 -13.490646 3.197332 -2.275941 -0.406600 0.631960 0.261630 0.080090 
-2.007810 18.036360 0.390760 -10.140048 4.684597 -15.989644 -14.745154 12.459000 2.601746 23.528771 3.222090 -19.823479 -3.726499 6.848254 15.391648 -0.854561 5.123532 2.582436 0.167550 0.271330 -0.068560 18.742468 -11.855589 2.461540 -6.722585 -1.168456 10.277929 3.265046 -7.806002 26.112413 -0.869893 -6.546582 2.019684 0.414490 0.584080 0.123160 -4.890770 0.590283 -7.426013 -2.709044 1.716767 21.246772 -23.998384 12.706523 23.400201 2.017465 -11.509814 -12.625400 -23.470295 12.127063 30.204612 0.561570 3.113660 -16.489460 11.676334 -26.761634 4.953394 -3.518598 -22.679570 -13.047604 56.251331 -35.611791 -24.184558 -4.092604 2.576943 0.407240 0.240370 -0.044010 0.094090 -16.458824 36.872895 4.743228 -10.510290 16.161729 -20.723360 -66.093485 44.385763 -30.266371 2.958552 -1.871417 -0.426880 0.640920 0.289310 0.041940 
-1.995100 18.030410 0.372200 -10.023391 4.091530 -15.631780 -14.746418 12.602371 2.569297 22.768547 3.238976 -20.835642 -2.541535 6.823481 17.099009 -0.957171 5.184099 2.455205 0.135410 0.128680 -0.095130 18.702283 -11.932369 2.496414 -6.473482 -0.719735 9.024783 3.115813 -7.793730 27.293983 -0.841619 -6.562880 1.875989 0.355110 0.541450 0.267250 -4.815031 0.586411 -7.404377 -3.616676 3.088970 22.652508 -20.080089 13.101367 23.951929 -0.117107 -11.667199 -12.678285 -22.997361 11.563654 29.109486 2.251710 1.705960 -18.067110 10.465011 -25.074156 5.536963 -7.534688 -20.457788 -12.146229 52.731481 -33.413749 -21.968270 -4.038696 2.757686 0.487180 0.205690 -0.037970 0.013790 -10.774597 36.568167 7.880292 -1.008006 18.391962 -20.265105 -97.180871 53.305186 -60.381990 2.398940 -0.903290 -0.404770 0.490050 0.410060 0.004020 
-1.985470 18.014190 0.349730 -10.174248 4.013852 -14.131863 -14.735096 12.676903 2.634273 21.830188 3.153429 -23.350046 -0.929606 6.597711 18.148374 -0.990799 5.093209 2.485924 0.041920 -0.044870 -0.185130 18.692802 -11.974409 2.473736 -5.898431 -0.007181 6.228915 3.123649 -7.783930 29.490495 -0.768509 -6.514653 1.875323 0.261030 0.585730 0.282120 -4.814774 0.623043 -7.404430 -4.149991 3.517978 24.305152 -18.014340 12.143193 23.137710 -1.364750 -12.104166 -13.334870 -23.138284 10.917846 26.995365 4.502400 -0.228320 -18.484870 9.119066 -20.586033 5.727237 -13.776020 -16.493821 -11.733744 53.547007 -36.450362 -23.737952 -3.914511 2.729635 0.531920 0.183190 -0.087460 0.004380 -6.561916 33.468573 11.801510 9.269177 23.053133 -12.685612 -119.299777 48.478533 -91.902903 2.164902 -0.816995 -0.444680 0.466080 0.487460 0.005420 
-1.983060 17.990180 0.294770 -9.892955 3.292358 -13.360583 -14.773219 12.789598 2.672332 20.772078 3.169663 -25.340296 0.480872 6.570619 19.828644 -1.075143 5.174733 2.505351 -0.071700 -0.225600 -0.203600 18.628466 -12.006002 2.419221 -6.550744 1.004606 3.695261 3.802483 -8.128921 32.239946 -0.699130 -6.617540 1.832622 0.205390 0.656450 0.220530 -4.659526 0.621839 -7.327388 -6.504373 4.698185 28.251016 -14.500815 11.684654 21.733336 -2.570838 -12.294997 -12.456536 -21.455624 9.798892 22.205811 4.189350 -1.299030 -20.746970 7.584970 -14.202799 4.574769 -21.245225 -14.631995 -11.667365 58.299555 -40.138328 -28.055991 -3.888813 2.542414 0.581540 0.187300 -0.161860 -0.033740 -2.639173 28.609601 12.886228 18.313626 24.340502 -7.031402 -135.796379 43.406739 -116.453537 2.027062 -1.221860 -0.575490 0.560090 0.561620 -0.035280 
